<svg id="Layer_4" data-name="Layer 4" xmlns="http://www.w3.org/2000/svg" viewBox="0 0 167.91 330.67"><defs><style>.cls-1{fill:#1d1d1b;}</style></defs><title>only hand</title><path class="cls-1" d="M363.66,276.95q-.17,22,1.34,43.92L378.74,319a413.58,413.58,0,0,1-6-42.45c-.79-8.85-13.79-9.15-14,0L358,308h14l-.88-41.77-13,3.53c2.15,4.47,1.46,10.74,1.72,15.56.3,5.52,1.31,11.55.75,17l2.05-4.95-.67.68,8.48-1.09-.41-.28,3.47,6,.06-.57-7,7h.35c9-.06,9-14.06,0-14h-.35c-4.06,0-6.63,3.2-7,7l-.06.57c-.25,2.53,1.55,4.72,3.47,6l.41.28c2.5,1.73,6.44,1,8.48-1.09,5.15-5.27,2.33-16,2-22.68-.42-7.73-.21-15.52-3.64-22.63-3.07-6.37-13.18-3.14-13,3.53L358,308c.19,9,13.79,9,14,0l.74-31.44h-14a450.17,450.17,0,0,0,6.54,46.18c1.5,7.69,14.29,6,13.75-1.86q-1.51-21.93-1.34-43.92c.07-9-13.93-9-14,0Z" transform="translate(-327.98 -156.01)"/><path class="cls-1" d="M352.74,225.85l-24.49,75.27L342,303a27.33,27.33,0,0,1,5.71-14.33l-11,1.42c-1-.79.56-1.65-1.09.16A17.7,17.7,0,0,0,333,294.6a23,23,0,0,0-1.83,11.67c.66,8.17,2.32,16.32,3.45,24.44,2.44,17.44,4.59,34.91,6.65,52.4q1.49,12.61,2.92,25.23c1,8.77,2.31,17.65,1.76,26.5-.52,8.34-3.44,16.34-4.49,24.62-.81,6.37-1.56,16.18,5.48,19.39,7.85,3.58,15.6-4.44,19.91-10.12a41,41,0,0,0,8.06-22h-14c0,1-1.47,10.51,3.55,7.55,2-1.19,3.42-7.07,4.08-9.24a40.29,40.29,0,0,0,.47-20.22c-1.89-8.8-15.39-5.08-13.5,3.72a25.9,25.9,0,0,1-2.74,18c-2.85,5.48-4.36,12.21,1.07,16.73,4.24,3.54,10.38,3.29,14.85.28,5.52-3.72,6.38-10.67,6.22-16.79-.23-9.11-13.3-8.9-14,0a25.5,25.5,0,0,1-3.18,10.49,26.13,26.13,0,0,1-3.2,4.56c-.48.54-4.11,3.31-4.11,3.76l4.77,3.14a17.41,17.41,0,0,1-.2-2.91,37.8,37.8,0,0,1,.64-7.15c.83-4.84,2.23-9.57,3.11-14.4,3.47-19.05-.92-39.21-3.14-58.22-2.27-19.38-4.67-38.74-7.36-58.06q-1.08-7.74-2.22-15.47c-.54-3.61-1.89-8.22-.52-11.79,1.46-3.82,4.47-6.1,4.91-10.49.37-3.76-.72-7.64-3.8-10-3.82-3-8.08-2.53-11,1.42A40.5,40.5,0,0,0,328,303c-.64,8.18,11.41,9.06,13.75,1.86l24.49-75.27c2.79-8.59-10.72-12.27-13.5-3.72Z" transform="translate(-327.98 -156.01)"/><path class="cls-1" d="M336,295h-.27a7,7,0,0,0-6,3.47c-1.58,3.05-1.43,6.68-.51,9.93.3,1.08.76,2.1,1.15,3.14a20.33,20.33,0,0,1,.68,2c.31,1.15.12-1.16.14,1a7,7,0,0,0,14,0,19.68,19.68,0,0,0-1.47-7c-.8-2.05-1.26-3.18-1.13-5.07l-1,3.53.19-.36-6,3.47H336a7,7,0,0,0,0-14Z" transform="translate(-327.98 -156.01)"/><path class="cls-1" d="M350.24,312.36l3.13-13.68-13.75-1.86,1.6,23.65c.61,9,13.27,9,14,0,1.08-13.25-1.8-26.9,2-39.85l-11.7,3.09c-.6-.77-.17,3.86-.16,4.73q.06,3.89-.07,7.78c-.14,4.54-.45,9.07-.86,13.6-.9,9.74-2.37,19.42-3.84,29.09-.57,3.77,1,7.48,4.89,8.61,3.3.95,8-1.16,8.61-4.89,1.85-12.18,3.72-24.39,4.67-36.69.77-9.94,3.2-23.77-3.34-32.13-3.4-4.35-10.36-1.48-11.7,3.09-4.19,14.29-1.3,29-2.49,43.57h14l-1.6-23.65c-.51-7.48-11.89-10-13.75-1.86l-3.13,13.68c-2,8.77,11.49,12.52,13.5,3.72Z" transform="translate(-327.98 -156.01)"/><path class="cls-1" d="M335,303.45a39.26,39.26,0,0,0-.74,5.16l10.53-6-.71-.4,2.51,2.51c-2.06-3.06-3.87-6.24-8.11-6.3a8.31,8.31,0,0,0-8.12,5.95c-1,3.24-.1,6.62.52,9.84l2,10.54c.71,3.72,5.17,5.83,8.61,4.89,3.89-1.07,5.6-4.89,4.89-8.61L345,313.73c-.3-1.56-1.3-4.94-1.15-5.69l-1.8,3.09.6-.77-4.95,2.05.78,0-3.53-1,.7.51-2.51-2.51c1.37,2.12,2.25,3.92,4.59,5.24,4.9,2.76,10.11-.82,10.53-6a3.61,3.61,0,0,1,.24-1.44c1.91-8.78-11.59-12.54-13.5-3.72Z" transform="translate(-327.98 -156.01)"/><path class="cls-1" d="M346.15,309.28c4.23,11.93,7.28,24.2,10.27,36.49,1.92,7.9,13.41,5.84,13.75-1.86.47-10.69.52-21.52,2-32.13H358.7a61.91,61.91,0,0,1,1.46,15.91h14l-1.34-20.76c-.31-4.74-5.92-9.45-10.53-6-4.19,3.1-5.28,7.6-6.61,12.47a101.76,101.76,0,0,0-3,16.61,98.63,98.63,0,0,0,2.4,32.54c2.12,8.95,14.85,5,13.5-3.72l-4.15-26.73c-1.24-8-13.66-5.79-13.75,1.86q-.22,18.82.95,37.61h14a95.63,95.63,0,0,1,11.24-55.62l-9.58,2.51q-2.71-2.84-1.32.55.39,1.81.71,3.63c.32,1.81.58,3.63.8,5.45.55,4.6.82,9.24,1.05,13.87.45,9,.7,18,1.7,26.91.8,7.15,12.11,10.3,13.75,1.86a421.93,421.93,0,0,0,7.48-63.79h-14c.74,17.14-1.75,34.21,1.78,51.18.92,4.4,6.62,6.44,10.28,4.18,4.15-2.55,5.36-7.4,7-11.76,1.94-5.29,3.59-10.69,5-16.14a307.9,307.9,0,0,0,6.37-32.32l-13.75-1.86c-1,15.6-4.35,30.71-1.86,46.36.48,3,3.93,5.14,6.75,5.14,3.34,0,5.55-2.25,6.75-5.14,2.68-6.45,3.54-13.9,4.73-20.75,1.27-7.31,2.29-14.65,3.16-22h-14L400,333.4c.09,7.62,12.24,9.86,13.75,1.86L418,312.73l-13.75-1.86-.07,4.46c-.14,9,13.86,9,14,0l.07-4.46c.12-7.7-12.26-9.77-13.75-1.86l-4.25,22.52L414,333.4l-.36-29.61c-.11-9.24-13-8.73-14,0q-1.2,10.15-3,20.21c-1.12,6.25-1.94,12.95-4.39,18.84h13.5c-2.25-14.12,1.49-28.55,2.36-42.64.48-7.75-12.56-9.72-13.75-1.86-1.41,9.31-3,18.6-5.22,27.76-1,4.26-2.17,8.5-3.47,12.69q-1.11,3.59-2.38,7.13-.64,1.77-1.31,3.52-1.68,3.07.47.75l10.28,4.18c-3.24-15.6-.6-31.68-1.28-47.46-.39-9-13.64-9-14,0a396.76,396.76,0,0,1-7,60.07l13.75,1.86c-1.24-11.1-1.28-22.27-2.08-33.4-.38-5.24-.95-10.46-1.81-15.64-.77-4.57-1.23-11.18-6-13.46-3.34-1.6-7.64-1-9.58,2.51a108.67,108.67,0,0,0-13.15,62.68c.85,8.82,14.56,9.09,14,0q-1.17-18.79-.95-37.61l-13.75,1.86,4.15,26.73,13.5-3.72a86,86,0,0,1-2.24-24.42,78.6,78.6,0,0,1,1.57-12.14q.54-2.59,1.24-5.15.46-1.7,1-3.39,1.53-3-.82-.72l-10.53-6,1.34,20.76c.58,8.94,13.71,9.08,14,0a77.1,77.1,0,0,0-2-19.64c-1.45-6.38-12.51-7-13.5,0-1.68,11.89-2,23.87-2.53,35.86L369.92,342c-3-12.29-6-24.56-10.27-36.49-3-8.43-16.52-4.8-13.5,3.72Z" transform="translate(-327.98 -156.01)"/><path class="cls-1" d="M407.76,322.82c1.19,3-2.13,8.75-3.16,11.72-1.31,3.78,1.52,7.38,4.89,8.61l.66.24L406,340.18c.2.36-.06,4.88,0,6.34q.09,4.16,0,8.33-.18,8.33-1.1,16.62A182.73,182.73,0,0,1,398,404c-2.61,8.65,10.9,12.34,13.5,3.72a201.27,201.27,0,0,0,7.88-41.78,186.45,186.45,0,0,0,.54-20.34c-.18-6.43.38-13.36-6.71-15.94l4.89,8.61c2.05-5.94,5.69-12.87,3.16-19.16-1.42-3.53-4.66-5.93-8.61-4.89-3.34.88-6.29,5.11-4.89,8.61Z" transform="translate(-327.98 -156.01)"/><path class="cls-1" d="M417.82,319.58l1.06-2.22-12.79-1.67.47,2.06c1.12,4.89,8.33,7.08,11.7,3.09,2.88-3.42,4.07-6.8,6-10.69.53-1.06,1.23-1.42,2.58-2.88a69,69,0,0,0,4.63-5.7,61.81,61.81,0,0,0,10.62-24c1.84-8.79-11.65-12.55-13.5-3.72a50.23,50.23,0,0,1-9.15,20.56c-2.12,2.76-5.12,5-7,7.9-1.73,2.78-2,6-4.16,8.62l11.7,3.09-.47-2.06c-1.28-5.62-10.2-7.12-12.79-1.67l-1.06,2.22c-3.86,8.09,8.2,15.2,12.09,7.07Z" transform="translate(-327.98 -156.01)"/><path class="cls-1" d="M432.23,276.65c-2.4,9-9.83,14.81-16.91,20.21-3,2.31-4.55,6-2.51,9.58,1.69,3,6.58,4.8,9.58,2.51,10.07-7.69,19.92-15.82,23.34-28.58,2.34-8.71-11.17-12.43-13.5-3.72Z" transform="translate(-327.98 -156.01)"/><path class="cls-1" d="M439.15,287.12a59,59,0,0,0,11.93.16c3.19-.3,7.56-1.93,10.5-1,3.23,1,6.24,3.49,9.46,4.75A34.73,34.73,0,0,0,483,293.48c5.77.16,9.63-8,4.95-11.95L482.58,277q-1.24-1-2.45-2.11-2.83-3.35-3.4,4.73c1.07.44,5.92-2.06,7.09-2.47l7.09-2.47c5.94-2.07,6.64-9.25,1.67-12.79A44,44,0,0,0,477.74,255c-8.74-2.22-12.46,11.28-3.72,13.5a33.29,33.29,0,0,1,11.51,5.4l1.67-12.79c-4.72,1.65-9.52,3.16-14.19,4.95-3.25,1.25-6.13,3-7.23,6.58C463.18,281,472.83,287,478,291.43L483,279.48c-7.93-.22-13.24-6.79-20.75-7.56-3.48-.35-6.82.84-10.24,1.28a55.07,55.07,0,0,1-12.85-.07c-3.79-.41-7,3.51-7,7,0,4.12,3.26,6.6,7,7Z" transform="translate(-327.98 -156.01)"/><path class="cls-1" d="M421,250.08l-3.33-1,4.18,10.28c2.83-3.67,9.17-2.5,13.26-2.51q9,0,18,.82c5,.46,9,1.17,13.31,3.73s10,4.9,13.19,8.87l3.09-11.7c-5.71,1.94-11.11.68-16.74-1-6.28-1.91-12.33-3.78-18.87-4.6-12.35-1.56-24.85,0-36.72,3.61-8,2.43-5.66,12.82,1.86,13.75q27.6,3.4,54.94,8.52l1.86-13.75c-9.58.82-19.15,1.6-28.75,2a54.56,54.56,0,0,0-12.7,1.57c-4.17,1.19-7.84,3.68-12.3,3.16l1.86,13.75a118.63,118.63,0,0,1,14.3-4.44l-5.39-12.79q-14,7.53-27.45,15.91c-6.56,4.08-2.42,15.17,5.39,12.79,6.27-1.91,11.5-5.3,16.73-9.16L410.51,280l-5.09,17.83c-2.11,7.4,9.53,12.82,12.79,5.39a123.63,123.63,0,0,1,8.86-16.62L414,283a54.16,54.16,0,0,1-1.67,9.23c-2.14,8.11,8.27,11.52,12.79,5.39a46.55,46.55,0,0,0,5-8.6c2.53-5.59-3.27-14.19-9.58-9.58-7.65,5.59-15.29,11.2-22.71,17.09-5.57,4.42-16.52,10.68-15.68,18.9.74,7.24,12,10.21,13.75,1.86a385.81,385.81,0,0,1,14.38-51.07l-13.75-1.86c-.36,15.85-7.6,30.64-9.13,46.4-.81,8.31,11.26,8.83,13.75,1.86q6.55-18.33,14.43-36.13l-13-3.53a79.82,79.82,0,0,1-1.67,16.16c-1.11,6.08,6.87,12.83,11.7,6.81a50.09,50.09,0,0,0,9.79-19c1.76-6.74-6.7-11.77-11.7-6.81-2,2-4.05,3.91-6.23,5.7-.84.69-1.7,1.37-2.58,2q-1,.75-2.07,1.46-2,1.2,1.45-.05l4.95,2.05-.69-.78,2.05,4.95c-.3-3.91,1-8.06,2.2-11.75,2.22-7-6.8-11.33-11.7-6.81a339.38,339.38,0,0,0-39.81,44L370.4,318c6.87-10.56,20-17.77,30.25-24.62l-8.48-11-23.48,20.14,11,8.48c5-6.74,12.15-19.26,8.86-27.89-3.89-10.19-19.74-5.89-16.57,5.06,2.5,8.64,16,5,13.5-3.72l-.27-.93-.71,5.39-1.14,1.12-5.39.71q-2.4-6.19-2.83-2.81-.26,1.25-.62,2.49a38.84,38.84,0,0,1-1.65,4.74,45.25,45.25,0,0,1-5.26,8.78c-5,6.78,5.35,13.32,11,8.48l23.48-20.14c6-5.15-1.87-15.4-8.48-11-12.45,8.3-27,16.85-35.28,29.64-5,7.74,6.79,14,12.09,7.07A319.64,319.64,0,0,1,408,276.86l-11.7-6.81c-2.09,6.58-6.58,21.48,4.05,23.12,4,.61,7-2,10-4.2a99.81,99.81,0,0,0,10.29-8.9l-11.7-6.81a33.75,33.75,0,0,1-6.19,12.8l11.7,6.81c1.2-6.58,2.32-13.18,2.17-19.88-.14-6.4-10.06-10.23-13-3.53q-8.66,19.44-15.84,39.47l13.75,1.86c1.54-15.8,8.77-30.36,9.13-46.4.19-8.25-11.19-9-13.75-1.86a385.81,385.81,0,0,0-14.38,51.07l13.75,1.86c.14,1.4,1.91-1,2.78-1.75q1.8-1.55,3.63-3.07,4.07-3.37,8.25-6.6c5.52-4.26,11.16-8.37,16.79-12.48L418.11,282a46.55,46.55,0,0,1-5,8.6L425.86,296A76.13,76.13,0,0,0,428,283c.63-7.32-9.59-9-13-3.53a123.63,123.63,0,0,0-8.86,16.62l12.79,5.39L424,283.69c1.55-5.44-5.2-11.66-10.28-7.91-4.18,3.08-8.36,6.22-13.38,7.74l5.39,12.79q13.48-8.38,27.45-15.91c7.14-3.84,2.17-14.63-5.39-12.79a118.63,118.63,0,0,0-14.3,4.44c-7.58,2.89-6.05,12.83,1.86,13.75,4.63.54,8.63-1,12.89-2.55a37.89,37.89,0,0,1,12.11-2.17c9.6-.41,19.18-1.18,28.75-2,7.28-.63,10.19-12.2,1.86-13.75q-29.19-5.42-58.66-9l1.86,13.75c11.77-3.56,24.29-5.09,36.43-2.42s23.4,8.69,35.9,4.44c5.34-1.82,6.42-7.51,3.09-11.7-4.28-5.37-12.12-9.05-18.07-12.24-6.37-3.41-13.13-4-20.22-4.62a168.35,168.35,0,0,0-23.75-.49c-7.86.47-13,3.08-17.75,9.28-2.86,3.72.31,9.14,4.18,10.28l3.33,1c8.66,2.55,12.36-11,3.72-13.5Z" transform="translate(-327.98 -156.01)"/><path class="cls-1" d="M401,252.79c.67-.39,1.36-.73,2-1.1,1.29-.7-1.05.32.46-.21a32,32,0,0,1,3.9-1.12c3.59-.77,6-5.16,4.89-8.61a7.17,7.17,0,0,0-8.61-4.89,33.1,33.1,0,0,0-9.75,3.84c-3.16,1.85-4.56,6.4-2.51,9.58a7.13,7.13,0,0,0,9.58,2.51Z" transform="translate(-327.98 -156.01)"/><path class="cls-1" d="M390.53,250.2l-.07-1.12-3.47,6a47.55,47.55,0,0,0,9.13-7.33c2.58-2.7,4.88-6.31,8.39-7.87s7.73-1.79,11.44-2.39q6.64-1.07,13.28-2.11c8.92-1.39,17.85-3.05,26.84-3.91s18.5.22,27.21-3l-6.81-11.7c-6.29,6.43-15.43,4.92-23.58,5.29-8.86.4-16.3,5.61-24.65,8.14-7.6,2.31-17.79,3.06-24.31,7.76-6.75,4.87-6,15.89,2.66,18.12l1.86-13.75c-8.93.5-18.63.92-27.28,3.4-3.77,1.08-6.5,3.41-9.93,4.86-3.88,1.64-6.79,1.27-9.24,5.44a7.07,7.07,0,0,0,6,10.53q25,.14,49.94-1.7l-1.86-13.75c-9.55,3.8-19.5,4.55-29.66,5-4.18.17-9.45-.42-13.13,1.93-3.84,2.46-4.67,7.66-5.93,11.71s2.28,9.09,6.75,8.86a203.72,203.72,0,0,0,22.73-2.82L391.5,263l-13.67,7.5c-5.6,3.07-3.75,10.9,1.67,12.79a33.84,33.84,0,0,0,12.34,1.85c9-.29,9-14.29,0-14a22.6,22.6,0,0,1-8.62-1.35l1.67,12.79,13.67-7.5c7.42-4.07,2-14-5.39-12.79a169.9,169.9,0,0,1-19,2.32l6.75,8.86c.26-.84,2.18-5.08,1.8-5.77q-5.93,3.06-2.51,2.65l2.69-.11c4.19-.17,8.39-.3,12.57-.62,8.34-.63,16.6-1.88,24.4-5,3.27-1.3,5.51-4,5-7.68-.44-3.22-3.39-6.33-6.87-6.07q-24.93,1.85-49.94,1.7l6,10.53q-2.87,1.85-1,1.35.92-.15,1.83-.36a20,20,0,0,0,4.2-2,25.27,25.27,0,0,1,8.24-3.42,141.33,141.33,0,0,1,21-2.31c7.62-.43,9.83-11.7,1.86-13.75Q409,251,413.16,249l1.7-.51c1.7-.51,3.42-1,5.13-1.43,3.43-.92,6.87-1.78,10.28-2.77,6.48-1.88,12.25-4.84,18.48-7.3,6-2.37,14-.59,20.38-1.63a30.48,30.48,0,0,0,17.25-8.61c4.6-4.7,0-14.22-6.81-11.7-8.58,3.16-18.36,1.82-27.36,2.92-9.56,1.17-19.08,2.79-28.59,4.28-8.37,1.31-18.27,1.61-25.93,5.51-7.15,3.63-11,11.08-17.76,15.31a7,7,0,0,0-3.47,6l.07,1.12c.58,8.94,14.59,9,14,0Z" transform="translate(-327.98 -156.01)"/><path class="cls-1" d="M412.48,238c5.7-1.89,11.41-3.89,17.23-5.38s11.57-1.34,17.3-2.66c5.17-1.19,10.81-.73,16.11-1.1,6.39-.45,12.74-1.21,19.08-2.11,3.77-.54,5.76-5.29,4.89-8.61-1.06-4-4.89-5.42-8.61-4.89-6.37.91-12.78,1.51-19.2,1.85-5.37.28-10.74,0-16,1.36-5.64,1.42-11.59,1.2-17.3,2.66s-11.53,3.5-17.23,5.38c-8.51,2.82-4.87,16.34,3.72,13.5Z" transform="translate(-327.98 -156.01)"/><path class="cls-1" d="M360,277.82c2.11-10.15,5.82-19.24,10.18-28.58,4.19-9,6.73-18.59,9.66-28,2.68-8.62-10.83-12.31-13.5-3.72-2.91,9.36-5.43,18.87-9.72,27.71a123.4,123.4,0,0,0-10.12,28.89c-1.83,8.79,11.67,12.55,13.5,3.72Z" transform="translate(-327.98 -156.01)"/><path class="cls-1" d="M366.12,231.45l.38-.15-9.58-9.58,3.73-2.41,4.95,11.95c10.08-11,20.14-21.83,28.7-34.06,5.18-7.4-7-14.4-12.09-7.07-7.87,11.24-17.25,21.14-26.51,31.23a7.09,7.09,0,0,0,4.95,11.95c3.81.26,6.2-1.66,8.36-4.53,4.54-6-4-12.48-9.58-9.58a15,15,0,0,0-3.21,2.34c-6.7,6.06,3.23,15.93,9.9,9.9Z" transform="translate(-327.98 -156.01)"/><path class="cls-1" d="M369.47,226.4c9.1-11.88,16.92-24.42,25.84-36.42,2.27-3.06.48-7.79-2.51-9.58-3.54-2.12-7.33-.51-9.58,2.51-8.92,12-16.74,24.54-25.84,36.42-2.32,3-.44,7.81,2.51,9.58,3.58,2.14,7.29.47,9.58-2.51Z" transform="translate(-327.98 -156.01)"/><path class="cls-1" d="M393.31,193.59l8.52-13.65c2.45-3.92,4.62-8.61,7.85-11.93,6.29-6.46-3.6-16.37-9.9-9.9-3.7,3.81-6.24,8.68-9,13.15l-9.52,15.26c-4.78,7.67,7.32,14.7,12.09,7.07Z" transform="translate(-327.98 -156.01)"/><path class="cls-1" d="M398.13,165.82c-.29,16.15-11,29.27-18.71,42.63A96.67,96.67,0,0,0,370,229.78a84.17,84.17,0,0,0-2.44,11.47c-.49,3.33-.65,6.53-2.71,9.32l9.58-2.51a31,31,0,0,0-8.43-2.81c-3.76-.61-7.49,1-8.61,4.89-1,3.33,1.17,8,4.89,8.61a18.36,18.36,0,0,1,5.09,1.4c3.71,1.75,7.16.77,9.58-2.51,4.51-6.12,4-14.43,5.84-21.52,2.18-8.54,6-16.15,10.52-23.66,8.83-14.6,18.49-28.94,18.8-46.63.16-9-13.84-9-14,0Z" transform="translate(-327.98 -156.01)"/><path class="cls-1" d="M395.61,345A245.18,245.18,0,0,1,397,372.74c-.16,9.5-1.66,18.93-1.2,28.44.43,9,14.43,9,14,0-.45-9.51,1-18.94,1.2-28.44A245.18,245.18,0,0,0,409.61,345c-.86-8.89-14.87-9-14,0Z" transform="translate(-327.98 -156.01)"/><path class="cls-1" d="M403.31,358.84c.4,3.32,1.67,6.43,2.06,9.71a45.69,45.69,0,0,1-.29,9.11c-.33,3.77,3.45,7,7,7,4.06,0,6.67-3.22,7-7a51.15,51.15,0,0,0,.22-9.62c-.32-3.16-1.62-6.11-2-9.21-.45-3.75-2.9-7-7-7-3.44,0-7.45,3.22-7,7Z" transform="translate(-327.98 -156.01)"/><path class="cls-1" d="M403.35,360.52c1.92,3.89,1.89,8.24,2.09,12.47a110.3,110.3,0,0,0,1.43,13.42l13.5-3.72-.35-1.14-13.75-1.86a79.38,79.38,0,0,1-21.47,65.78c-6.29,6.46,3.6,16.37,9.9,9.9,19.32-19.86,29.16-48.12,25.57-75.68-.46-3.5-2.32-6.37-6.07-6.87-3.23-.44-7,1.59-7.68,5a16.88,16.88,0,0,0,.35,8.58c2.53,8.81,15,5,13.5-3.72-1.69-10-.32-19.91-4.93-29.24-4-8.08-16.07-1-12.09,7.07Z" transform="translate(-327.98 -156.01)"/><path class="cls-1" d="M388.48,341.39c-7.94,23.83-7.49,50.41-7.61,75.26,0,9.15,13.18,8.82,14,0,1.46-15.75,3-31.48,6.25-47l-12.79,1.67c1.67,2.7,1,8.35,1.07,11.5q.17,6.35,0,12.71a208.26,208.26,0,0,1-2.49,26.35h13.5c-9.31-27.19-10.76-56.08-16.39-84.09-1.44-7.17-11.51-6.13-13.5,0-4.35,13.4-3.95,27.83-9,41H375a99.43,99.43,0,0,1-2-14.85q-.19-3.74-.13-7.5c0-1.65,1-5.25.3-6.71l-8.41-1-.44,1.58a25,25,0,0,0-1.09,3.09c-.79,2-1.71,4-2.54,6.06a116,116,0,0,0-4.82,14.28c-5,18.71-5.59,38.34-3.66,57.53.88,8.78,14.21,9.18,14,0a499,499,0,0,0-5.55-63L347.23,372c6.85,23.87,8.26,48.85,14.4,72.88,2.12,8.29,12.78,5.42,13.75-1.86,1.45-10.88,1.14-22.07,1.37-33q.36-16.91.54-33.83h-14c1.25,18.32-.54,36.71,3.1,54.84.68,3.41,4.47,5.45,7.68,5,3.7-.5,5.65-3.36,6.07-6.87a511.13,511.13,0,0,0,3.52-71.23l-13.75,1.86c4.64,31.79,2.11,64.1,4.66,96.06a7,7,0,0,0,14,0c.53-6.84,1-13.68,1.9-20.49.71-5.61,1.09-12.33,4.21-17.2H382.6a65.49,65.49,0,0,1,4.13,14.93c1.24,7.49,11.37,5.75,13.5,0l6.41-17.27L398,420.7l1.64.44c3.36.9,8-1.12,8.61-4.89l.86-5.23c1.42-8.7-11.4-12.66-13.5-3.72l-4.29,18.28c-2.06,8.76,11.44,12.5,13.5,3.72L409.14,411l-13.5-3.72-.86,5.23,8.61-4.89-1.64-.44c-3.89-1-7.28,1.31-8.61,4.89l-6.41,17.27h13.5a79.51,79.51,0,0,0-5.54-18.28c-2.19-5.15-9.57-3.94-12.09,0-3.9,6.09-4.67,13.54-5.63,20.55-1.1,8-1.76,16.12-2.39,24.2h14c-2.65-33.25-.33-66.68-5.16-99.78-1.15-7.88-13.91-5.89-13.75,1.86a511.13,511.13,0,0,1-3.52,71.23l13.75-1.86c-3.37-16.81-1.44-34.11-2.6-51.12-.61-8.9-13.9-9.11-14,0q-.19,16.92-.54,33.83c-.23,11,.08,22.15-1.37,33l13.75-1.86c-6.14-24-7.55-49-14.4-72.88-2.55-8.88-14.81-5-13.5,3.72a469.65,469.65,0,0,1,5.05,59.28h14c-1.3-12.95-1.58-26.12.18-39a120.83,120.83,0,0,1,4.2-19c1.85-6,4.64-11.67,6.72-17.62,2-5.59,2.56-12.08-2.78-16-4.87-3.55-11.26-1.53-13.86,3.69s-1.92,12.35-1.77,17.87a122.18,122.18,0,0,0,2.56,21.38c1.52,7.39,11.28,5.86,13.5,0,5-13.22,4.61-27.65,9-41h-13.5c5.63,28,7.08,56.9,16.39,84.09,2,5.88,12.32,7.39,13.5,0a236.28,236.28,0,0,0,3-32q.17-7.82-.22-15.64c-.24-4.72-.24-9.55-2.79-13.68-3-4.84-11.5-4.45-12.79,1.67-3.52,16.71-5.17,33.72-6.75,50.71h14c.11-23.66-.45-48.84,7.1-71.54,2.85-8.57-10.66-12.24-13.5-3.72Z" transform="translate(-327.98 -156.01)"/><path class="cls-1" d="M387.2,431.68l-7.7,14.92c-1.1,2.13-4.36,11.22-6.75,10.87l4.18,3.22-.5-1,.71,5.39c.58-3.37,5.89-6.46,8.52-8.26l-9.58-2.51s-.73,4.57-.94,5.75c-1.24,7.26,8.88,13,12.79,5.39a62.9,62.9,0,0,1,8-12.1L384,448.45c-.27,3.51-.81,6.94-1.4,10.41-1.22,7.21,9,13.08,12.79,5.39a16.12,16.12,0,0,0,1.7-4.72c1.5-8.81-12-12.6-13.5-3.72l-.28,1.38,12.79,5.39c.79-4.69,1.53-9.39,1.9-14.13.46-5.88-8.1-9.47-11.95-4.95a78.35,78.35,0,0,0-10.16,14.94l12.79,5.39c.89-5.23,2.64-11.77-.48-16.54-2-3-6.33-4.74-9.58-2.51-5.18,3.56-11.38,7.86-14.05,13.77-3.22,7.13,1.56,13.16,9,12.73,7.86-.46,11.48-5,14.83-11.46l10.86-21.07c4.12-8-8-15.08-12.09-7.07Z" transform="translate(-327.98 -156.01)"/><path class="cls-1" d="M405.52,362.29c1.59,19.43,4.68,39.28-1.11,58.24-2.93,9.58-6,18.84-7.44,28.8s-2.21,20.3-3.19,30.46l13.75-1.86-4.43-17.8c-1.39-5.59-10.11-7.13-12.79-1.67q-3.44,7-7.52,13.66l12.79,1.67a54.52,54.52,0,0,1-2.42-12c-.49-6.14-10-10.51-13-3.53l-3.63,8.22,13,3.53a9,9,0,0,0-9.37-9.16c-2.63,0-5,1.2-7.51,1.71a54,54,0,0,1-8.64.73c-7.49.29-10,12.35-1.86,13.75a68.3,68.3,0,0,0,18.51.85c8.88-.88,9-14.89,0-14a54.83,54.83,0,0,1-14.78-.35L364,477.32c2.94-.11,5.86-.27,8.78-.66,1.2-.16,2.4-.31,3.59-.56a20,20,0,0,0,2.54-.67q2.41-.42-1.35-1.4l-2.05-4.95,0,1c.12,6.4,10.08,10.23,13,3.53l3.63-8.22-13-3.53a71.72,71.72,0,0,0,2.92,15.68,7.09,7.09,0,0,0,12.79,1.67q4.09-6.66,7.52-13.66l-12.79-1.67,4.43,17.8c2,8.12,13,5.6,13.75-1.86,1-10.16,1.58-20.45,3.27-30.52,1.65-9.81,5.25-19,7.9-28.52,5.27-19,2.16-39.14.57-58.45-.73-8.92-14.74-9-14,0Z" transform="translate(-327.98 -156.01)"/></svg>